<svg width="50" height="43" viewBox="0 0 50 43" fill="none" xmlns="http://www.w3.org/2000/svg">
<path d="M21.8673 22.2181V21.7181H21.3673H14.754C15.6061 18.8751 18.0333 14.0043 22.0896 7.06345L22.3463 6.62422L21.9027 6.37518L13.6179 1.72404L13.2284 1.50536L12.9673 1.86788C7.73103 9.14054 4.44358 14.8153 3.15819 18.8693L3.15813 18.8693L3.15589 18.8767C1.97139 22.825 1.39062 28.7958 1.39062 36.7529V41.84V42.34H1.89062H21.3673H21.8673V41.84V22.2181ZM48.3206 22.2181V21.7181H47.8206H41.2073C42.0595 18.8751 44.4866 14.0043 48.543 7.06345L48.7997 6.62422L48.356 6.37518L40.0712 1.72404L39.6817 1.50536L39.4207 1.86788C34.1844 9.14054 30.8969 14.8153 29.6115 18.8693L29.6115 18.8693L29.6092 18.8767C28.4247 22.825 27.844 28.7958 27.844 36.7529V41.84V42.34H28.344H47.8206H48.3206V41.84V22.2181Z" stroke="#0A0C00"/>
</svg>
