<svg width="35" height="35" viewBox="0 0 35 35" fill="none" xmlns="http://www.w3.org/2000/svg">
<mask id="mask0_2012_34" style="mask-type:luminance" maskUnits="userSpaceOnUse" x="0" y="0" width="35" height="35">
<path d="M26.25 0H8.75C6.42936 0 4.20376 0.921873 2.56282 2.56282C0.921873 4.20376 0 6.42936 0 8.75V26.25C0 28.5706 0.921873 30.7962 2.56282 32.4372C4.20376 34.0781 6.42936 35 8.75 35H26.25C28.5706 35 30.7962 34.0781 32.4372 32.4372C34.0781 30.7962 35 28.5706 35 26.25V8.75C35 6.42936 34.0781 4.20376 32.4372 2.56282C30.7962 0.921873 28.5706 0 26.25 0Z" fill="white"/>
</mask>
<g mask="url(#mask0_2012_34)">
<path d="M26.25 0H8.75C6.42936 0 4.20376 0.921873 2.56282 2.56282C0.921873 4.20376 0 6.42936 0 8.75V26.25C0 28.5706 0.921873 30.7962 2.56282 32.4372C4.20376 34.0781 6.42936 35 8.75 35H26.25C28.5706 35 30.7962 34.0781 32.4372 32.4372C34.0781 30.7962 35 28.5706 35 26.25V8.75C35 6.42936 34.0781 4.20376 32.4372 2.56282C30.7962 0.921873 28.5706 0 26.25 0Z" fill="#178D72"/>
<path d="M0 0H35V35H0V0Z" fill="url(#paint0_linear_2012_34)"/>
<path d="M14.9023 7.10938C14.9023 9.1762 14.0813 11.1584 12.6198 12.6198C11.1584 14.0813 9.1762 14.9023 7.10938 14.9023V20.0977H14.9023V27.8906H20.0977C20.0977 25.8238 20.9187 23.8416 22.3802 22.3802C23.8416 20.9187 25.8238 20.0977 27.8906 20.0977V14.9023H20.0977V7.10938H14.9023Z" fill="url(#paint1_linear_2012_34)"/>
</g>
<defs>
<linearGradient id="paint0_linear_2012_34" x1="17.5" y1="0" x2="18.958" y2="35" gradientUnits="userSpaceOnUse">
<stop stop-color="white" stop-opacity="0"/>
<stop offset="1" stop-color="white" stop-opacity="0.12"/>
</linearGradient>
<linearGradient id="paint1_linear_2012_34" x1="17.5" y1="7.10938" x2="17.5" y2="27.8906" gradientUnits="userSpaceOnUse">
<stop stop-color="white" stop-opacity="0.8"/>
<stop offset="1" stop-color="white" stop-opacity="0.5"/>
</linearGradient>
</defs>
</svg>
